<svg xmlns="http://www.w3.org/2000/svg" version="1.1" xmlns:xlink="http://www.w3.org/1999/xlink" width="512" height="512" x="0" y="0" viewBox="0 0 512 512" style="enable-background:new 0 0 512 512" xml:space="preserve" class=""><g><path d="M262.276 434.059a7.997 7.997 0 0 1-10.929 2.926l-90.255-52.129A8.001 8.001 0 0 1 169.094 371l90.255 52.129a8.001 8.001 0 0 1 2.927 10.929zm213.756-220.426v253.304c0 17.682-14.385 32.066-32.066 32.066H287.21a32.018 32.018 0 0 1-17.744-5.37 31.912 31.912 0 0 1-18.05-4.2l-135.763-78.414c-7.395-4.254-12.699-11.163-14.925-19.447-2.226-8.288-1.096-16.931 3.183-24.336l61.044-105.721h-4.483c-7.676 0-14.611-2.878-20.057-8.324l-3.572-3.572c-2.482-2.482-5.269-3.638-8.771-3.638h-10.065c-3.279 8.908-11.85 15.279-21.882 15.279H59.247c-12.836 0-23.279-10.456-23.279-23.307V118.954c0-12.852 10.443-23.307 23.279-23.307h36.878c10.032 0 18.603 6.371 21.882 15.279h2.44c2.709 0 6.426-.767 11.162-6.746 16.538-20.988 27.816-37.452 33.578-73.511 2.017-11.978 11.931-19.116 24.117-17.426 16.984 2.354 33.242 21.294 29.918 51.757a8.71 8.71 0 0 1-.028.226l-4.159 30.138h52.417c15.259 0 27.672 12.414 27.672 27.672 0 4.942-1.305 9.583-3.584 13.603l52.058-6.907 9.29-16.251c6.485-11.365 17.056-19.536 29.764-23.002 12.702-3.465 25.958-1.8 37.329 4.689 23.549 13.471 31.762 43.57 18.316 67.1l-7.312 12.796 41.922 32.225a8 8 0 0 1 3.125 6.343zm-112.491-86.546.995-.132a7.987 7.987 0 0 1 5.924 1.592l.003-.004 47.719 36.68 6.224-10.892c9.07-15.874 3.525-36.181-12.362-45.269-7.655-4.368-16.6-5.486-25.182-3.146-8.581 2.341-15.712 7.846-20.081 15.501l-3.241 5.669zm-260.108-8.132c0-4.029-3.278-7.307-7.307-7.307H59.248c-3.945 0-7.279 3.346-7.279 7.307v118.999c0 3.961 3.333 7.307 7.279 7.307h36.878c4.029 0 7.307-3.278 7.307-7.307zm57.04 126.561h91.701c4.311 0 7.817-3.507 7.817-7.817s-3.507-7.817-7.817-7.817h-17.376a8 8 0 0 1 0-16h26.306c6.139 0 11.134-4.995 11.134-11.134s-4.995-11.134-11.134-11.134h-17.376a8 8 0 0 1 0-16h22.96c6.858 0 12.438-5.592 12.438-12.466s-5.58-12.438-12.438-12.438h-17.376a8 8 0 0 1 0-16h18.142c6.436 0 11.672-5.236 11.672-11.672s-5.236-11.672-11.672-11.672h-78.123a8 8 0 0 1 0-16h9.554l4.445-32.208c2.452-22.836-8.64-33.013-16.222-34.064-5.302-.736-5.926 2.955-6.131 4.168-6.347 39.725-19.261 58.565-36.812 80.838-6.746 8.518-14.721 12.828-23.717 12.828h-1.014v103.056h8.64c7.694 0 14.639 2.878 20.085 8.324l3.572 3.572c2.482 2.482 5.26 3.638 8.743 3.638zm98.934 230.056c7.673 4.413 17.525 1.773 21.954-5.891l124.68-215.958-45.497-110.098-6.987.927-15.493 27.101a32.592 32.592 0 0 0-1.383 2.727c10.857 3.751 18.68 14.068 18.68 26.185 0 15.274-12.427 27.701-27.701 27.701s-27.701-12.426-27.701-27.701c0-12.543 8.382-23.159 19.837-26.557a48.648 48.648 0 0 1 4.375-10.292l9.443-16.518-40.535 5.378a28.292 28.292 0 0 1 2.046 10.571c0 9.687-4.859 18.259-12.265 23.403a26.993 26.993 0 0 1 5.377 16.197c0 10.533-6.033 19.683-14.824 24.178a23.679 23.679 0 0 1 2.579 10.773c0 13.133-10.685 23.817-23.817 23.817h-68.742l-65.666 113.724c-2.139 3.702-2.702 8.028-1.585 12.183 1.115 4.151 3.765 7.608 7.462 9.735l135.763 78.414zm56.553-275.007c0 6.452 5.249 11.701 11.701 11.701s11.701-5.249 11.701-11.701c0-4.179-2.209-7.843-5.514-9.913a33.522 33.522 0 0 0 1.442 7.506 8.001 8.001 0 0 1-7.631 10.41 8.002 8.002 0 0 1-7.627-5.595 49.361 49.361 0 0 1-1.939-9.121 11.626 11.626 0 0 0-2.133 6.713zm4.857 232.775h71.672c6.812 0 12.353-5.542 12.353-12.353v-76.224c0-6.811-5.542-12.353-12.353-12.353h-13.402l-58.27 100.929zm139.216-215.766-75.647-58.149 37.948 91.83a8 8 0 0 1-.465 7.055l-33.544 58.101h4.165c15.634 0 28.353 12.719 28.353 28.353v76.224c0 15.634-12.719 28.353-28.353 28.353h-80.91l-16.364 28.343a31.96 31.96 0 0 1-3.849 5.32h152.6c8.859 0 16.066-7.208 16.066-16.066V217.575zM229.377 349.55l-3.063 5.299a8 8 0 0 0 13.852 8.008l3.072-5.313c3.233.977 6.522 1.471 9.754 1.471 10.438 0 20.258-4.963 25.502-14.021 11.408-19.766-2.604-32.335-11.876-40.653-10.884-9.764-13.043-13.225-8.708-20.736 3.712-6.413 13.042-7.989 20.789-3.52l.003.002c5.467 3.166 8.95 8.737 8.874 14.193a8 8 0 0 0 7.887 8.111c4.397.066 8.049-3.47 8.111-7.887.123-8.776-3.743-17.245-10.401-23.464l3.063-5.298a8 8 0 0 0-13.851-8.009l-3.063 5.298c-13.678-4.135-28.395.7-35.264 12.565-11.407 19.766 2.604 32.335 11.876 40.653 10.884 9.764 13.044 13.225 8.708 20.736-3.713 6.413-13.042 7.989-20.789 3.519-5.469-3.166-8.954-8.738-8.877-14.196a8 8 0 0 0-7.887-8.111h-.114a8 8 0 0 0-7.997 7.888c-.123 8.776 3.743 17.246 10.401 23.464z" fill="#ffd700" opacity="1" data-original="#000000" class=""></path></g></svg>