<svg xmlns="http://www.w3.org/2000/svg" version="1.1" xmlns:xlink="http://www.w3.org/1999/xlink" width="512" height="512" x="0" y="0" viewBox="0 0 24 24" style="enable-background:new 0 0 512 512" xml:space="preserve" fill-rule="evenodd" class=""><g><path fill-rule="nonzero" d="M21.189 19.574a3.828 3.828 0 0 0 .362-3.853l-1.37-2.937a4.387 4.387 0 0 0-5.83-2.122l-.991.462c-.503.113-.938.031-1.156-.436l-1.48-3.175a1.646 1.646 0 0 0-2.982 1.39l3.476 7.455-2.402-.992a1.794 1.794 0 0 0-1.405.016 1.794 1.794 0 0 0-.96 1.026l-.001.003a1.765 1.765 0 0 0 1.036 2.256l3.631 1.368c1.67.608 2.105.813 2.734 2.008a.981.981 0 0 0 1.238.355c1.873-.852 6.1-2.824 6.1-2.824z" fill="#ffd700" opacity="1" data-original="#000000" class=""></path><path d="M8.205 4.642a.75.75 0 1 1-1.359.634l-.867-1.86a.75.75 0 0 1 1.359-.634zM11.6 4.445a.75.75 0 1 1-1.409-.513l.702-1.929a.75.75 0 0 1 1.409.513zM5.026 6.341a.75.75 0 1 1-.513 1.409l-1.929-.702a.75.75 0 1 1 .513-1.409zM5.006 9.27a.75.75 0 0 1 .634 1.36l-1.86.867a.75.75 0 0 1-.634-1.359zM14.308 4.933a.75.75 0 0 1 .634 1.359l-1.86.868a.75.75 0 0 1-.634-1.36z" fill="#ffd700" opacity="1" data-original="#000000" class=""></path></g></svg>