<svg xmlns="http://www.w3.org/2000/svg" version="1.1" xmlns:xlink="http://www.w3.org/1999/xlink" width="512" height="512" x="0" y="0" viewBox="0 0 512 512" style="enable-background:new 0 0 512 512" xml:space="preserve"><g><path d="M500.637 313.914c6.203-12.271 3.635-26.836-6.391-36.244l-12.46-11.695c-2.272-2.132-3.545-4.336-4.255-7.369l-3.897-16.639c-3.136-13.386-14.466-22.893-28.193-23.657l-17.062-.949c-3.111-.173-5.503-1.043-7.997-2.911L406.7 204.21a30.95 30.95 0 0 0-10.401-5.082v-51.972a7.998 7.998 0 0 0-4-6.928L206.149 32.754a8 8 0 0 0-8 0L12 140.228a7.998 7.998 0 0 0-4 6.928v214.947a7.998 7.998 0 0 0 4 6.928l186.149 107.473c1.237.715 2.619 1.072 4 1.072s2.763-.357 4-1.072l88.589-51.147-8.468 18.187a9.996 9.996 0 0 0 1.13 10.329 9.998 9.998 0 0 0 9.682 3.772l25.155-4.396 12.832 22.084a9.99 9.99 0 0 0 9.12 4.972 9.99 9.99 0 0 0 8.627-5.782l24.143-51.854 7.086-2.142c2.98-.9 5.526-.901 8.509.001l7.085 2.141 24.142 51.855a9.992 9.992 0 0 0 9.092 5.792c3.563 0 6.85-1.88 8.658-4.987l12.83-22.08 25.154 4.396c3.699.645 7.405-.801 9.684-3.774s2.71-6.933 1.128-10.328l-24.722-53.102 9.471-4.056c12.639-5.412 20.033-18.221 18.401-31.871l-2.027-16.969c-.37-3.094.072-5.6 1.478-8.38zm-298.488-68.522-50.083-28.916 170.149-98.236 50.083 28.915zM98.083 185.309l170.149-98.236 37.983 21.929-170.149 98.236zm-8 13.856 37.983 21.93v66.167l-37.983-21.93zM202.149 48.92l50.083 28.916-170.149 98.235L32 147.156zM24 161.012l50.083 28.916v80.023a7.998 7.998 0 0 0 4 6.928l53.983 31.167c1.237.715 2.619 1.072 4 1.072s2.763-.357 4-1.072a7.997 7.997 0 0 0 4-6.928v-70.785l50.083 28.916V455.72L24 357.484zM210.149 455.72V259.248l170.149-98.236v38.116a30.932 30.932 0 0 0-10.401 5.082l-13.681 10.24c-2.494 1.867-4.886 2.738-7.997 2.911l-17.062.949c-13.727.764-25.057 10.271-28.192 23.657l-3.897 16.638c-.711 3.033-1.983 5.238-4.255 7.37l-12.461 11.695c-10.025 9.408-12.594 23.974-6.391 36.244l7.709 15.251c1.405 2.78 1.848 5.286 1.478 8.38l-2.027 16.968c-1.632 13.651 5.763 26.46 18.401 31.872l9.473 4.057-4.493 9.649zm132.997 1.668-9.877-16.997a8.003 8.003 0 0 0-8.294-3.861l-19.365 3.384 18.784-40.344 8.708 13.316c5.569 8.515 14.629 13.486 24.296 13.89zm108.477-20.859a8.005 8.005 0 0 0-8.294 3.861l-9.877 16.998-14.252-30.614c9.667-.405 18.727-5.375 24.295-13.889l8.709-13.317 18.783 40.345zm34.734-129.834-7.709 15.251c-2.817 5.573-3.826 11.297-3.085 17.497l2.027 16.97c.794 6.64-2.666 12.631-8.813 15.265l-15.709 6.728c-5.741 2.458-10.192 6.194-13.61 11.42l-9.354 14.302c-3.66 5.598-10.164 7.966-16.563 6.029l-16.357-4.942c-5.98-1.809-11.792-1.808-17.769-.001l-16.358 4.943c-6.399 1.935-12.902-.431-16.563-6.029l-9.354-14.301c-3.418-5.227-7.869-8.963-13.61-11.421l-15.709-6.728c-6.147-2.634-9.607-8.625-8.813-15.266l2.027-16.969c.741-6.2-.268-11.924-3.085-17.497l-7.709-15.251c-3.018-5.969-1.816-12.782 3.061-17.359l12.461-11.695c4.553-4.273 7.459-9.306 8.884-15.387l3.897-16.638c1.525-6.512 6.826-10.959 13.503-11.331l17.062-.949c6.235-.347 11.697-2.335 16.696-6.078l13.681-10.24c2.677-2.004 5.745-3.006 8.813-3.006s6.137 1.002 8.813 3.006l13.681 10.24c4.999 3.742 10.461 5.73 16.696 6.078l17.062.949c6.678.371 11.979 4.819 13.504 11.331l3.897 16.638c1.424 6.079 4.329 11.112 8.883 15.387l12.461 11.695c4.878 4.577 6.079 11.391 3.061 17.359zm-98.058-68.167c-40.743 0-73.89 33.147-73.89 73.891s33.146 73.89 73.89 73.89 73.891-33.146 73.891-73.89-33.148-73.891-73.891-73.891zm0 131.781c-31.921 0-57.89-25.969-57.89-57.89s25.969-57.891 57.89-57.891 57.891 25.97 57.891 57.891-25.97 57.89-57.891 57.89z" fill="#ffd700" opacity="1" data-original="#000000"></path></g></svg>