<svg xmlns="http://www.w3.org/2000/svg" version="1.1" xmlns:xlink="http://www.w3.org/1999/xlink" width="512" height="512" x="0" y="0" viewBox="0 0 48 48" style="enable-background:new 0 0 512 512" xml:space="preserve" class=""><g><g data-name="hand receive package"><path d="M1 22h6v17H1zM46.67 28.63a3 3 0 0 0-4-1.3L31.4 33.07c-1.43 2.23-3.76 3.67-6.11 2.54L17.4 31.9a1 1 0 0 1 .86-1.8c8.59 4 8.07 3.88 8.74 3.9 2.37.11 3.87-3.57 1.28-4.72C14.16 22.65 16.16 22.86 9 23.75V37a6.63 6.63 0 0 1 3.18.54c14.56 6.61 10.46 6.75 33.19-4.87a3 3 0 0 0 1.3-4.04zM29 9c.31 0 .2 0 3 1.38V6h-6v4.38C28.81 9 28.69 9 29 9z" fill="#ffd700" opacity="1" data-original="#000000" class=""></path><path d="M29.13 27.47a5 5 0 0 1 2.68 3.15C42.83 25 42.12 25.27 43 25.11V6h-9c0 6.49.16 6.46-.47 6.85s-.74.15-4.53-1.73l-3.55 1.77A1 1 0 0 1 24 12V6h-9v15.42c2.53.36 3.17.9 14.13 6.05zM35 22h4a1 1 0 0 1 0 2h-4a1 1 0 0 1 0-2z" fill="#ffd700" opacity="1" data-original="#000000" class=""></path></g></g></svg>